<svg id="scale-up-logo" xmlns="http://www.w3.org/2000/svg" viewBox="0 0 721 415"><defs><style>.cls-1{fill:#4879b9;}</style></defs><title>scaleup-blue1</title><g id="_2018" data-name="2018"><path d="M457,308.1c0-3.7-.6-5.1-6.4-5.1h-2.2c-5.8,0-6.4,1.4-6.4,5.1V319H423V305.9c0-10.8,4.6-13.9,22.7-13.9h8.1c17.5,0,22.2,3.1,22.2,13.8v3.8c0,11-4.5,15.3-20.4,26-11.7,7.9-15.6,11.5-15.6,20.2V357h36v10H421V355.7c0-11.1,4.5-15.4,20.3-26,11.9-8,15.7-11.5,15.7-20.3v-1.3Z"/><path d="M540,354.2c0,10.8-4.7,13.8-22.3,13.8H507.3c-17.8,0-22.3-3.1-22.3-13.8V306.9c0-10.8,4.5-13.8,22.3-13.8h10.4c17.6,0,22.3,3.1,22.3,13.8Zm-35-2.3c0,3.7.6,5.1,6.3,5.1h2.4c5.7,0,6.3-1.4,6.3-5.1V308c0-3.7-.6-5.1-6.3-5.1h-2.4c-5.7,0-6.3,1.4-6.3,5.1v43.9Z"/><path d="M551,367V298.6c5,0,10.7-3.2,10.7-5.6H571v74Z"/><path d="M603.3,368c-17.6,0-22.3-3.1-22.3-13.8V341.3c0-7.8,2.5-11.6,10.8-13.1-8.3-1.5-10.8-5.3-10.8-13.2v-8.1c0-10.8,4.7-13.8,22.3-13.8h10.2c17.6,0,22.5,3.1,22.5,13.8V315c0,8-2.6,11.7-11.2,13.2,8.5,1.5,11.2,5.3,11.2,13.1v12.9c0,10.8-4.9,13.8-22.5,13.8ZM616,308c0-3.6-.6-5-6.3-5h-2.4c-5.7,0-6.3,1.3-6.3,5v9.1c0,3.6.6,4.9,6.3,4.9h2.4c5.7,0,6.3-1.2,6.3-4.9Zm0,30c0-3.7-.6-5-6.3-5h-2.4c-5.7,0-6.3,1.3-6.3,5v14c0,3.7.6,5,6.3,5h2.4c5.7,0,6.3-1.4,6.3-5Z"/></g><g id="summit"><polygon id="t" points="343 369 360 369 360 281 371 281 371 265 332 265 332 281 343 281 343 369"/><rect id="i" x="308" y="265" width="17" height="103"/><path id="m" d="M190.3,314.6c-.6,5-.9,10.8-1.2,16.5-.4-5.8-.9-11.5-1.5-16.5L181.7,266H157V369h15V314.7c0-6.2-.1-14.4-.3-21,.9,6.9,2,15.4,2.8,21l8,54.3h13.6l7.7-54.5c.7-5.5,1.5-13.9,2.5-20.8-.1,6.6-.3,14.6-.3,20.8V369h16V265H196.3Z"/><path id="m-2" data-name="m" d="M247,313.7c0-6.2-.1-14.4-.3-21,.9,6.9,2,15.4,2.8,21l8,54.3h13.6l7.7-54.3c.7-5.5,1.5-13.9,2.5-20.7-.1,6.6-.3,14.5-.3,20.7V368h16V265H272.6l-6.1,49.1c-.6,5-.9,10.8-1.2,16.4-.4-5.8-.9-11.5-1.5-16.4L257.7,265H232V368h15Z"/><path id="u" d="M131.1,346c0,6.2-.4,8-5.3,8h-2.4c-4.9,0-5.3-1.9-5.3-8V266h-17v82.2c0,16,4,20.8,18.7,20.8h7.7c14.8,0,18.6-4.6,18.6-20.8V266h-15v80Z"/><path id="s" d="M66.4,369h6.9C88,369,92,364.3,92,348v-8c0-14.3-4.1-19.3-15.3-29.2-10-8.7-12.7-11.5-12.7-20.2v-3.4c0-5.5.4-7.2,5.1-7.2h1.7c4.6,0,5.1,1.8,5.1,7.5V300h16V285.8c0-16.1-3.9-20.8-19.2-20.8h-7c-14.9,0-18.8,4.7-18.8,21v5.6c0,14.3,4,19.5,15.1,29.2,10.3,8.6,13,11.5,13,20.2v5.5c0,5.8-.4,7.5-5,7.5H68.1c-4.7,0-5.1-1.8-5.1-7.5V331H47v17.2C47,364.2,51,369,66.4,369Z"/></g><g id="scaleup"><path class="cls-1" d="M623,232c3,8.8,9.6,14,22.5,14h6.2c17.4,0,22.3-7.4,22.3-27.1V115.2S668.8,87.3,651.6,87h-6.2c-15.2.3-21.7,8.2-23.4,21.2V88H594V280h28l1-48Zm0-102.8c0-9.9,2.5-15.2,10-15.2h3.4c7.7,0,8.6,3.4,8.6,12.7v80.6c0,9.3-.8,12.7-8.6,12.7H633c-7.4,0-10-5.4-10-15.2Z"/><path class="cls-1" d="M523.2,246H538c28.6,0,35.9-9,35.9-40.1V47h-30V201.6c0,11-.8,14.4-10.2,14.4h-4.5c-9.3,0-10.2-3.4-10.2-14.4V47H487V205.9C487,237,494.6,246,523.2,246Z"/><path class="cls-1" d="M423.1,246h13.8c25.2,0,32.1-8.2,32.1-35.9V191H442v15.4c0,9.3-1.1,12.6-9,12.6h-3.7c-8.2,0-9.3-3.4-9.3-12.9V175h49V122.6c0-27.7-6.8-35.6-32-35.6H423.1c-25.5,0-32.1,7.9-32.1,35.6v87.5C391,237.8,397.5,246,423.1,246ZM420,126.1c0-9.7,1.1-13.1,9.3-13.1H433c7.9,0,9,3.4,9,13.1V151H420Z"/><rect class="cls-1" x="344" y="47" width="29" height="198"/><path class="cls-1" d="M267.4,246h6.2s21.2-7.3,23.7-19.4a103.11,103.11,0,0,0,2.5,18.4h27.5c-2.3-9.4-2.3-17.3-2.3-26.4V122.7c0-27.8-6.9-35.7-32.5-35.7H279.1c-25.6,0-32.1,7.9-32.1,35.7V142h27V126.9c0-9.5,1.1-12.9,9.1-12.9h3.8c8,0,9.1,3.4,9.1,13v.3c0,17.8-2.3,18.6-26,27.5-21.1,7.9-25,18.6-25,38.3v25C245.2,238.4,250,246,267.4,246Zm6.6-52.8c0-12.1,1.7-16.6,13.8-21.2a60.45,60.45,0,0,0,8.2-3.7v35.5c0,9.9-2.5,15.2-9.9,15.2h-3.4c-7.6,0-8.7-3.4-8.7-12.7Z"/><path class="cls-1" d="M184.2,246h13c25,0,31.8-8.2,31.8-35.6V180H202v27c0,9.6-1.1,13-9,13h-3.7c-8.2,0-9.3-3.4-9.3-13V127c0-9.6,1.1-13,9.3-13h3.4c8.2,0,9.3,3.4,9.3,12.9V151h28V122.6c0-27.7-6.8-35.6-32.1-35.6H184c-25.5,0-32.1,7.9-32.1,35.6v87.5C152.2,237.8,158.6,246,184.2,246Z"/><path class="cls-1" d="M86.4,246H99c28.3,0,36-9,36-40.1V190.7c0-27.4-8-37-29.4-55.9C86.1,118.2,81,112.8,81,96.2V88.8C81,78.4,81.8,75,91.3,75h3.4c9.1,0,10.3,3.4,10.3,14.4V113h30V85.4C135,54.2,127.7,45,99.1,45H85.5C57.2,45,50,54,50,85.1V95.8c0,27.4,7.5,37.2,28.9,55.9,19.1,16.4,24.1,22,24.1,38.6v11.3c0,11-.8,14.4-9.6,14.4H89.8c-9,0-9.9-3.4-9.9-14.4V173H50v33C50,237,57.4,246,86.4,246Z"/></g><g id="rectangle"><path d="M0,0V415H721V0ZM708,401H14V13H708Z"/></g></svg>